<svg width="17" height="20" viewBox="0 0 17 20" fill="none" xmlns="http://www.w3.org/2000/svg">
<path fill-rule="evenodd" clip-rule="evenodd" d="M5.55005 4.5C5.55005 2.88779 6.79025 1.5 8.55005 1.5C10.3098 1.5 11.55 2.88779 11.55 4.5V5.5H5.55005V4.5ZM4.05005 7V9.5H5.55005V7H11.55V9.5H13.05V7H15.05V17.75C15.05 18.1642 14.7142 18.5 14.3 18.5H2.80005C2.38584 18.5 2.05005 18.1642 2.05005 17.75V7H4.05005ZM4.05005 5.5V4.5C4.05005 2.11221 5.90989 0 8.55005 0C11.1902 0 13.05 2.11221 13.05 4.5V5.5H15.8H16.55V6.25V17.75C16.55 18.9926 15.5426 20 14.3 20H2.80005C1.55741 20 0.550049 18.9926 0.550049 17.75V6.25V5.5H1.30005H4.05005Z" fill="#1F2026"/>
</svg>
