<svg width="36" height="36" viewBox="0 0 36 36" fill="none" xmlns="http://www.w3.org/2000/svg">
<mask id="mask0_1_4948" style="mask-type:luminance" maskUnits="userSpaceOnUse" x="0" y="0" width="36" height="36">
<path d="M0 0H36V36H0V0Z" fill="white"/>
</mask>
<g mask="url(#mask0_1_4948)">
<path d="M18 0C33 0 36 3 36 18C36 33 33 36 18 36C3 36 0 33 0 18C0 3 3 0 18 0Z" fill="url(#paint0_linear_1_4948)"/>
<path d="M8.844 17.8493C14.091 15.5633 17.5905 14.0558 19.341 13.3276C24.3398 11.2486 25.3785 10.8871 26.0558 10.8751C26.2043 10.8728 26.5373 10.9096 26.7533 11.0851C26.9348 11.2321 26.9858 11.4323 27.009 11.5726C27.033 11.7121 27.063 12.0316 27.039 12.2806C26.769 15.1268 25.596 22.0343 24.9998 25.2218C24.7478 26.5703 24.2513 27.0226 23.7698 27.0668C22.7243 27.1636 21.9308 26.3768 20.9183 25.7123C19.3343 24.6743 18.4395 24.0278 16.9013 23.0146C15.1238 21.8431 16.2765 21.1996 17.289 20.1473C17.5545 19.8721 22.1595 15.6833 22.2488 15.3031C22.26 15.2558 22.2705 15.0781 22.1655 14.9851C22.0605 14.8913 21.9045 14.9236 21.7928 14.9491C21.6338 14.9851 19.1025 16.6576 14.1998 19.9666C13.4813 20.4608 12.831 20.7008 12.2483 20.6881C11.6055 20.6746 10.3688 20.3251 9.45 20.0258C8.32275 19.6598 7.4265 19.4656 7.5045 18.8438C7.545 18.5198 7.992 18.1883 8.844 17.8493Z" fill="white"/>
</g>
<defs>
<linearGradient id="paint0_linear_1_4948" x1="18" y1="0" x2="18" y2="35.733" gradientUnits="userSpaceOnUse">
<stop stop-color="#2AABEE"/>
<stop offset="1" stop-color="#229ED9"/>
</linearGradient>
</defs>
</svg>
